M48
; DRILL file {KiCad 5.1.10} date Sat May  8 14:59:43 2021
; FORMAT={-:-/ absolute / metric / decimal}
; #@! TF.CreationDate,2021-05-08T14:59:43+02:00
; #@! TF.GenerationSoftware,Kicad,Pcbnew,5.1.10
; #@! TF.FileFunction,Plated,1,2,PTH
FMAT,2
METRIC
T1C0.600
T2C0.800
T3C0.900
T4C0.950
T5C1.100
T6C1.200
T7C1.300
T8C2.300
%
G90
G05
T1
X22.25Y19.5
X24.25Y19.5
T2
X20.75Y40.25
X25.75Y40.25
X37.5Y20.5
X37.5Y15.5
X54.0Y39.25
X54.0Y36.25
X54.0Y26.5
X61.62Y39.25
X61.62Y36.25
X61.62Y26.5
T3
X59.75Y32.0
X59.75Y29.46
X59.75Y15.0
X59.75Y12.46
T4
X13.5Y25.75
X13.5Y23.25
X13.5Y21.25
X13.5Y18.75
T5
X30.1Y34.5
X30.1Y26.88
X30.1Y22.7
X30.1Y15.08
X32.25Y8.05
X32.25Y3.25
X33.5Y34.5
X33.5Y26.88
X33.5Y22.7
X33.5Y15.08
T6
X42.0Y31.75
X47.0Y31.75
T7
X23.75Y10.0
X23.75Y5.0
X60.75Y9.3
X60.75Y4.5
T8
X10.79Y28.82
X10.79Y15.68
T0
M30
