G04 #@! TF.GenerationSoftware,KiCad,Pcbnew,5.1.10*
G04 #@! TF.CreationDate,2021-05-08T14:59:39+02:00*
G04 #@! TF.ProjectId,Dynamo_minimal_USB_charger,44796e61-6d6f-45f6-9d69-6e696d616c5f,1.0*
G04 #@! TF.SameCoordinates,PX5f5e100PY7bfa480*
G04 #@! TF.FileFunction,Legend,Bot*
G04 #@! TF.FilePolarity,Positive*
%FSLAX46Y46*%
G04 Gerber Fmt 4.6, Leading zero omitted, Abs format (unit mm)*
G04 Created by KiCad (PCBNEW 5.1.10) date 2021-05-08 14:59:39*
%MOMM*%
%LPD*%
G01*
G04 APERTURE LIST*
%ADD10C,0.150000*%
%ADD11C,0.250000*%
%ADD12C,0.300000*%
%ADD13C,0.120000*%
%ADD14C,1.600000*%
%ADD15C,1.800000*%
%ADD16R,1.800000X1.800000*%
%ADD17C,2.000000*%
%ADD18C,2.300000*%
%ADD19O,2.600000X2.600000*%
%ADD20R,2.600000X2.600000*%
%ADD21C,3.200000*%
%ADD22O,1.600000X1.600000*%
%ADD23C,0.100000*%
%ADD24R,1.500000X1.600000*%
%ADD25C,3.000000*%
%ADD26C,2.600000*%
%ADD27R,1.600000X1.600000*%
%ADD28O,2.200000X2.200000*%
%ADD29R,2.200000X2.200000*%
%ADD30C,1.200000*%
%ADD31R,1.200000X1.200000*%
%ADD32C,2.400000*%
%ADD33R,2.400000X2.400000*%
G04 APERTURE END LIST*
D10*
X49452380Y27904762D02*
X49452380Y27333334D01*
X50452380Y27619048D02*
X49452380Y27619048D01*
X50452380Y26857143D02*
X50404761Y26952381D01*
X50357142Y27000000D01*
X50261904Y27047620D01*
X49976190Y27047620D01*
X49880952Y27000000D01*
X49833333Y26952381D01*
X49785714Y26857143D01*
X49785714Y26714286D01*
X49833333Y26619048D01*
X49880952Y26571429D01*
X49976190Y26523810D01*
X50261904Y26523810D01*
X50357142Y26571429D01*
X50404761Y26619048D01*
X50452380Y26714286D01*
X50452380Y26857143D01*
X50452380Y26095239D02*
X49785714Y26095239D01*
X49880952Y26095239D02*
X49833333Y26047620D01*
X49785714Y25952381D01*
X49785714Y25809524D01*
X49833333Y25714286D01*
X49928571Y25666667D01*
X50452380Y25666667D01*
X49928571Y25666667D02*
X49833333Y25619048D01*
X49785714Y25523810D01*
X49785714Y25380953D01*
X49833333Y25285715D01*
X49928571Y25238096D01*
X50452380Y25238096D01*
X50452380Y24000000D02*
X49452380Y24000000D01*
X50166666Y23666667D01*
X49452380Y23333334D01*
X50452380Y23333334D01*
X50452380Y22428572D02*
X49928571Y22428572D01*
X49833333Y22476191D01*
X49785714Y22571429D01*
X49785714Y22761905D01*
X49833333Y22857143D01*
X50404761Y22428572D02*
X50452380Y22523810D01*
X50452380Y22761905D01*
X50404761Y22857143D01*
X50309523Y22904762D01*
X50214285Y22904762D01*
X50119047Y22857143D01*
X50071428Y22761905D01*
X50071428Y22523810D01*
X50023809Y22428572D01*
X49785714Y21523810D02*
X50595238Y21523810D01*
X50690476Y21571429D01*
X50738095Y21619048D01*
X50785714Y21714286D01*
X50785714Y21857143D01*
X50738095Y21952381D01*
X50404761Y21523810D02*
X50452380Y21619048D01*
X50452380Y21809524D01*
X50404761Y21904762D01*
X50357142Y21952381D01*
X50261904Y22000000D01*
X49976190Y22000000D01*
X49880952Y21952381D01*
X49833333Y21904762D01*
X49785714Y21809524D01*
X49785714Y21619048D01*
X49833333Y21523810D01*
X49785714Y21047620D02*
X50452380Y21047620D01*
X49880952Y21047620D02*
X49833333Y21000000D01*
X49785714Y20904762D01*
X49785714Y20761905D01*
X49833333Y20666667D01*
X49928571Y20619048D01*
X50452380Y20619048D01*
X50452380Y20142858D02*
X49785714Y20142858D01*
X49452380Y20142858D02*
X49500000Y20190477D01*
X49547619Y20142858D01*
X49500000Y20095239D01*
X49452380Y20142858D01*
X49547619Y20142858D01*
X50404761Y19285715D02*
X50452380Y19380953D01*
X50452380Y19571429D01*
X50404761Y19666667D01*
X50309523Y19714286D01*
X49928571Y19714286D01*
X49833333Y19666667D01*
X49785714Y19571429D01*
X49785714Y19380953D01*
X49833333Y19285715D01*
X49928571Y19238096D01*
X50023809Y19238096D01*
X50119047Y19714286D01*
X50452380Y18809524D02*
X49785714Y18809524D01*
X49976190Y18809524D02*
X49880952Y18761905D01*
X49833333Y18714286D01*
X49785714Y18619048D01*
X49785714Y18523810D01*
X50071428Y17428572D02*
X50071428Y16666667D01*
X49785714Y15523810D02*
X50452380Y15285715D01*
X49785714Y15047620D01*
X50452380Y14142858D02*
X50452380Y14714286D01*
X50452380Y14428572D02*
X49452380Y14428572D01*
X49595238Y14523810D01*
X49690476Y14619048D01*
X49738095Y14714286D01*
X50357142Y13714286D02*
X50404761Y13666667D01*
X50452380Y13714286D01*
X50404761Y13761905D01*
X50357142Y13714286D01*
X50452380Y13714286D01*
X49452380Y13047620D02*
X49452380Y12952381D01*
X49500000Y12857143D01*
X49547619Y12809524D01*
X49642857Y12761905D01*
X49833333Y12714286D01*
X50071428Y12714286D01*
X50261904Y12761905D01*
X50357142Y12809524D01*
X50404761Y12857143D01*
X50452380Y12952381D01*
X50452380Y13047620D01*
X50404761Y13142858D01*
X50357142Y13190477D01*
X50261904Y13238096D01*
X50071428Y13285715D01*
X49833333Y13285715D01*
X49642857Y13238096D01*
X49547619Y13190477D01*
X49500000Y13142858D01*
X49452380Y13047620D01*
X50071428Y11523810D02*
X50071428Y10761905D01*
X49452380Y9333334D02*
X49452380Y9238096D01*
X49500000Y9142858D01*
X49547619Y9095239D01*
X49642857Y9047620D01*
X49833333Y9000001D01*
X50071428Y9000001D01*
X50261904Y9047620D01*
X50357142Y9095239D01*
X50404761Y9142858D01*
X50452380Y9238096D01*
X50452380Y9333334D01*
X50404761Y9428572D01*
X50357142Y9476191D01*
X50261904Y9523810D01*
X50071428Y9571429D01*
X49833333Y9571429D01*
X49642857Y9523810D01*
X49547619Y9476191D01*
X49500000Y9428572D01*
X49452380Y9333334D01*
X49452380Y8095239D02*
X49452380Y8571429D01*
X49928571Y8619048D01*
X49880952Y8571429D01*
X49833333Y8476191D01*
X49833333Y8238096D01*
X49880952Y8142858D01*
X49928571Y8095239D01*
X50023809Y8047620D01*
X50261904Y8047620D01*
X50357142Y8095239D01*
X50404761Y8142858D01*
X50452380Y8238096D01*
X50452380Y8476191D01*
X50404761Y8571429D01*
X50357142Y8619048D01*
X49404761Y6904762D02*
X50690476Y7761905D01*
X49547619Y6619048D02*
X49500000Y6571429D01*
X49452380Y6476191D01*
X49452380Y6238096D01*
X49500000Y6142858D01*
X49547619Y6095239D01*
X49642857Y6047620D01*
X49738095Y6047620D01*
X49880952Y6095239D01*
X50452380Y6666667D01*
X50452380Y6047620D01*
X49452380Y5428572D02*
X49452380Y5333334D01*
X49500000Y5238096D01*
X49547619Y5190477D01*
X49642857Y5142858D01*
X49833333Y5095239D01*
X50071428Y5095239D01*
X50261904Y5142858D01*
X50357142Y5190477D01*
X50404761Y5238096D01*
X50452380Y5333334D01*
X50452380Y5428572D01*
X50404761Y5523810D01*
X50357142Y5571429D01*
X50261904Y5619048D01*
X50071428Y5666667D01*
X49833333Y5666667D01*
X49642857Y5619048D01*
X49547619Y5571429D01*
X49500000Y5523810D01*
X49452380Y5428572D01*
X49547619Y4714286D02*
X49500000Y4666667D01*
X49452380Y4571429D01*
X49452380Y4333334D01*
X49500000Y4238096D01*
X49547619Y4190477D01*
X49642857Y4142858D01*
X49738095Y4142858D01*
X49880952Y4190477D01*
X50452380Y4761905D01*
X50452380Y4142858D01*
X50452380Y3190477D02*
X50452380Y3761905D01*
X50452380Y3476191D02*
X49452380Y3476191D01*
X49595238Y3571429D01*
X49690476Y3666667D01*
X49738095Y3761905D01*
D11*
X44839285Y29428572D02*
X43039285Y29428572D01*
X44325000Y28828572D01*
X43039285Y28228572D01*
X44839285Y28228572D01*
X44839285Y27371429D02*
X43639285Y27371429D01*
X43039285Y27371429D02*
X43125000Y27457143D01*
X43210714Y27371429D01*
X43125000Y27285715D01*
X43039285Y27371429D01*
X43210714Y27371429D01*
X43639285Y26514286D02*
X44839285Y26514286D01*
X43810714Y26514286D02*
X43725000Y26428572D01*
X43639285Y26257143D01*
X43639285Y26000000D01*
X43725000Y25828572D01*
X43896428Y25742858D01*
X44839285Y25742858D01*
X44839285Y24885715D02*
X43639285Y24885715D01*
X43039285Y24885715D02*
X43125000Y24971429D01*
X43210714Y24885715D01*
X43125000Y24800000D01*
X43039285Y24885715D01*
X43210714Y24885715D01*
X44839285Y24028572D02*
X43639285Y24028572D01*
X43810714Y24028572D02*
X43725000Y23942858D01*
X43639285Y23771429D01*
X43639285Y23514286D01*
X43725000Y23342858D01*
X43896428Y23257143D01*
X44839285Y23257143D01*
X43896428Y23257143D02*
X43725000Y23171429D01*
X43639285Y23000000D01*
X43639285Y22742858D01*
X43725000Y22571429D01*
X43896428Y22485715D01*
X44839285Y22485715D01*
X44839285Y20857143D02*
X43896428Y20857143D01*
X43725000Y20942858D01*
X43639285Y21114286D01*
X43639285Y21457143D01*
X43725000Y21628572D01*
X44753571Y20857143D02*
X44839285Y21028572D01*
X44839285Y21457143D01*
X44753571Y21628572D01*
X44582142Y21714286D01*
X44410714Y21714286D01*
X44239285Y21628572D01*
X44153571Y21457143D01*
X44153571Y21028572D01*
X44067857Y20857143D01*
X44839285Y19742858D02*
X44753571Y19914286D01*
X44582142Y20000000D01*
X43039285Y20000000D01*
X43039285Y17685715D02*
X44496428Y17685715D01*
X44667857Y17600000D01*
X44753571Y17514286D01*
X44839285Y17342858D01*
X44839285Y17000000D01*
X44753571Y16828572D01*
X44667857Y16742858D01*
X44496428Y16657143D01*
X43039285Y16657143D01*
X44753571Y15885715D02*
X44839285Y15628572D01*
X44839285Y15200000D01*
X44753571Y15028572D01*
X44667857Y14942858D01*
X44496428Y14857143D01*
X44325000Y14857143D01*
X44153571Y14942858D01*
X44067857Y15028572D01*
X43982142Y15200000D01*
X43896428Y15542858D01*
X43810714Y15714286D01*
X43725000Y15800000D01*
X43553571Y15885715D01*
X43382142Y15885715D01*
X43210714Y15800000D01*
X43125000Y15714286D01*
X43039285Y15542858D01*
X43039285Y15114286D01*
X43125000Y14857143D01*
X43896428Y13485715D02*
X43982142Y13228572D01*
X44067857Y13142858D01*
X44239285Y13057143D01*
X44496428Y13057143D01*
X44667857Y13142858D01*
X44753571Y13228572D01*
X44839285Y13400000D01*
X44839285Y14085715D01*
X43039285Y14085715D01*
X43039285Y13485715D01*
X43125000Y13314286D01*
X43210714Y13228572D01*
X43382142Y13142858D01*
X43553571Y13142858D01*
X43725000Y13228572D01*
X43810714Y13314286D01*
X43896428Y13485715D01*
X43896428Y14085715D01*
X44753571Y10142858D02*
X44839285Y10314286D01*
X44839285Y10657143D01*
X44753571Y10828572D01*
X44667857Y10914286D01*
X44496428Y11000000D01*
X43982142Y11000000D01*
X43810714Y10914286D01*
X43725000Y10828572D01*
X43639285Y10657143D01*
X43639285Y10314286D01*
X43725000Y10142858D01*
X44839285Y9371429D02*
X43039285Y9371429D01*
X44839285Y8600000D02*
X43896428Y8600000D01*
X43725000Y8685715D01*
X43639285Y8857143D01*
X43639285Y9114286D01*
X43725000Y9285715D01*
X43810714Y9371429D01*
X44839285Y6971429D02*
X43896428Y6971429D01*
X43725000Y7057143D01*
X43639285Y7228572D01*
X43639285Y7571429D01*
X43725000Y7742858D01*
X44753571Y6971429D02*
X44839285Y7142858D01*
X44839285Y7571429D01*
X44753571Y7742858D01*
X44582142Y7828572D01*
X44410714Y7828572D01*
X44239285Y7742858D01*
X44153571Y7571429D01*
X44153571Y7142858D01*
X44067857Y6971429D01*
X44839285Y6114286D02*
X43639285Y6114286D01*
X43982142Y6114286D02*
X43810714Y6028572D01*
X43725000Y5942858D01*
X43639285Y5771429D01*
X43639285Y5600000D01*
X43639285Y4228572D02*
X45096428Y4228572D01*
X45267857Y4314286D01*
X45353571Y4400000D01*
X45439285Y4571429D01*
X45439285Y4828572D01*
X45353571Y5000000D01*
X44753571Y4228572D02*
X44839285Y4400000D01*
X44839285Y4742858D01*
X44753571Y4914286D01*
X44667857Y5000000D01*
X44496428Y5085715D01*
X43982142Y5085715D01*
X43810714Y5000000D01*
X43725000Y4914286D01*
X43639285Y4742858D01*
X43639285Y4400000D01*
X43725000Y4228572D01*
X44753571Y2685715D02*
X44839285Y2857143D01*
X44839285Y3200000D01*
X44753571Y3371429D01*
X44582142Y3457143D01*
X43896428Y3457143D01*
X43725000Y3371429D01*
X43639285Y3200000D01*
X43639285Y2857143D01*
X43725000Y2685715D01*
X43896428Y2600000D01*
X44067857Y2600000D01*
X44239285Y3457143D01*
X44839285Y1828572D02*
X43639285Y1828572D01*
X43982142Y1828572D02*
X43810714Y1742858D01*
X43725000Y1657143D01*
X43639285Y1485715D01*
X43639285Y1314286D01*
X46589285Y26171429D02*
X46589285Y25485715D01*
X47789285Y25914286D02*
X46246428Y25914286D01*
X46075000Y25828572D01*
X45989285Y25657143D01*
X45989285Y25485715D01*
X47789285Y24628572D02*
X47703571Y24800000D01*
X47617857Y24885715D01*
X47446428Y24971429D01*
X46932142Y24971429D01*
X46760714Y24885715D01*
X46675000Y24800000D01*
X46589285Y24628572D01*
X46589285Y24371429D01*
X46675000Y24200000D01*
X46760714Y24114286D01*
X46932142Y24028572D01*
X47446428Y24028572D01*
X47617857Y24114286D01*
X47703571Y24200000D01*
X47789285Y24371429D01*
X47789285Y24628572D01*
X47789285Y23257143D02*
X46589285Y23257143D01*
X46932142Y23257143D02*
X46760714Y23171429D01*
X46675000Y23085715D01*
X46589285Y22914286D01*
X46589285Y22742858D01*
X47789285Y20771429D02*
X45989285Y20771429D01*
X47789285Y20000000D02*
X46846428Y20000000D01*
X46675000Y20085715D01*
X46589285Y20257143D01*
X46589285Y20514286D01*
X46675000Y20685715D01*
X46760714Y20771429D01*
X46589285Y18371429D02*
X47789285Y18371429D01*
X46589285Y19142858D02*
X47532142Y19142858D01*
X47703571Y19057143D01*
X47789285Y18885715D01*
X47789285Y18628572D01*
X47703571Y18457143D01*
X47617857Y18371429D01*
X47789285Y17514286D02*
X45989285Y17514286D01*
X46675000Y17514286D02*
X46589285Y17342858D01*
X46589285Y17000000D01*
X46675000Y16828572D01*
X46760714Y16742858D01*
X46932142Y16657143D01*
X47446428Y16657143D01*
X47617857Y16742858D01*
X47703571Y16828572D01*
X47789285Y17000000D01*
X47789285Y17342858D01*
X47703571Y17514286D01*
X47789285Y13742858D02*
X45989285Y13742858D01*
X47703571Y13742858D02*
X47789285Y13914286D01*
X47789285Y14257143D01*
X47703571Y14428572D01*
X47617857Y14514286D01*
X47446428Y14600000D01*
X46932142Y14600000D01*
X46760714Y14514286D01*
X46675000Y14428572D01*
X46589285Y14257143D01*
X46589285Y13914286D01*
X46675000Y13742858D01*
X46589285Y13057143D02*
X47789285Y12628572D01*
X46589285Y12200000D02*
X47789285Y12628572D01*
X48217857Y12800000D01*
X48303571Y12885715D01*
X48389285Y13057143D01*
X46589285Y11514286D02*
X47789285Y11514286D01*
X46760714Y11514286D02*
X46675000Y11428572D01*
X46589285Y11257143D01*
X46589285Y11000000D01*
X46675000Y10828572D01*
X46846428Y10742858D01*
X47789285Y10742858D01*
X47789285Y9114286D02*
X46846428Y9114286D01*
X46675000Y9200000D01*
X46589285Y9371429D01*
X46589285Y9714286D01*
X46675000Y9885715D01*
X47703571Y9114286D02*
X47789285Y9285715D01*
X47789285Y9714286D01*
X47703571Y9885715D01*
X47532142Y9971429D01*
X47360714Y9971429D01*
X47189285Y9885715D01*
X47103571Y9714286D01*
X47103571Y9285715D01*
X47017857Y9114286D01*
X47789285Y8257143D02*
X46589285Y8257143D01*
X46760714Y8257143D02*
X46675000Y8171429D01*
X46589285Y8000000D01*
X46589285Y7742858D01*
X46675000Y7571429D01*
X46846428Y7485715D01*
X47789285Y7485715D01*
X46846428Y7485715D02*
X46675000Y7400000D01*
X46589285Y7228572D01*
X46589285Y6971429D01*
X46675000Y6800000D01*
X46846428Y6714286D01*
X47789285Y6714286D01*
X47789285Y5600000D02*
X47703571Y5771429D01*
X47617857Y5857143D01*
X47446428Y5942858D01*
X46932142Y5942858D01*
X46760714Y5857143D01*
X46675000Y5771429D01*
X46589285Y5600000D01*
X46589285Y5342858D01*
X46675000Y5171429D01*
X46760714Y5085715D01*
X46932142Y5000000D01*
X47446428Y5000000D01*
X47617857Y5085715D01*
X47703571Y5171429D01*
X47789285Y5342858D01*
X47789285Y5600000D01*
D12*
X57428571Y34750000D02*
X57428571Y35464286D01*
X55928571Y35464286D01*
X57428571Y34035715D02*
X57357142Y34178572D01*
X57285714Y34250000D01*
X57142857Y34321429D01*
X56714285Y34321429D01*
X56571428Y34250000D01*
X56500000Y34178572D01*
X56428571Y34035715D01*
X56428571Y33821429D01*
X56500000Y33678572D01*
X56571428Y33607143D01*
X56714285Y33535715D01*
X57142857Y33535715D01*
X57285714Y33607143D01*
X57357142Y33678572D01*
X57428571Y33821429D01*
X57428571Y34035715D01*
X56428571Y33035715D02*
X57428571Y32750000D01*
X56714285Y32464286D01*
X57428571Y32178572D01*
X56428571Y31892858D01*
X57428571Y29964286D02*
X57357142Y30107143D01*
X57214285Y30178572D01*
X55928571Y30178572D01*
X57428571Y29178572D02*
X57357142Y29321429D01*
X57285714Y29392858D01*
X57142857Y29464286D01*
X56714285Y29464286D01*
X56571428Y29392858D01*
X56500000Y29321429D01*
X56428571Y29178572D01*
X56428571Y28964286D01*
X56500000Y28821429D01*
X56571428Y28750000D01*
X56714285Y28678572D01*
X57142857Y28678572D01*
X57285714Y28750000D01*
X57357142Y28821429D01*
X57428571Y28964286D01*
X57428571Y29178572D01*
X57428571Y27392858D02*
X56642857Y27392858D01*
X56500000Y27464286D01*
X56428571Y27607143D01*
X56428571Y27892858D01*
X56500000Y28035715D01*
X57357142Y27392858D02*
X57428571Y27535715D01*
X57428571Y27892858D01*
X57357142Y28035715D01*
X57214285Y28107143D01*
X57071428Y28107143D01*
X56928571Y28035715D01*
X56857142Y27892858D01*
X56857142Y27535715D01*
X56785714Y27392858D01*
X57428571Y26035715D02*
X55928571Y26035715D01*
X57357142Y26035715D02*
X57428571Y26178572D01*
X57428571Y26464286D01*
X57357142Y26607143D01*
X57285714Y26678572D01*
X57142857Y26750000D01*
X56714285Y26750000D01*
X56571428Y26678572D01*
X56500000Y26607143D01*
X56428571Y26464286D01*
X56428571Y26178572D01*
X56500000Y26035715D01*
X55928571Y16142858D02*
X55928571Y16857143D01*
X56642857Y16928572D01*
X56571428Y16857143D01*
X56500000Y16714286D01*
X56500000Y16357143D01*
X56571428Y16214286D01*
X56642857Y16142858D01*
X56785714Y16071429D01*
X57142857Y16071429D01*
X57285714Y16142858D01*
X57357142Y16214286D01*
X57428571Y16357143D01*
X57428571Y16714286D01*
X57357142Y16857143D01*
X57285714Y16928572D01*
X55928571Y15642858D02*
X57428571Y15142858D01*
X55928571Y14642858D01*
X55928571Y12714286D02*
X55928571Y12428572D01*
X56000000Y12285715D01*
X56142857Y12142858D01*
X56428571Y12071429D01*
X56928571Y12071429D01*
X57214285Y12142858D01*
X57357142Y12285715D01*
X57428571Y12428572D01*
X57428571Y12714286D01*
X57357142Y12857143D01*
X57214285Y13000000D01*
X56928571Y13071429D01*
X56428571Y13071429D01*
X56142857Y13000000D01*
X56000000Y12857143D01*
X55928571Y12714286D01*
X57428571Y11428572D02*
X55928571Y11428572D01*
X57428571Y10571429D02*
X56571428Y11214286D01*
X55928571Y10571429D02*
X56785714Y11428572D01*
D13*
G04 #@! TO.C,D8*
X60830000Y29460000D02*
X60830000Y29460000D01*
X60960000Y29460000D02*
X60830000Y29460000D01*
X60960000Y29460000D02*
X60960000Y29460000D01*
X60830000Y29460000D02*
X60960000Y29460000D01*
X60830000Y32000000D02*
X60830000Y32000000D01*
X60960000Y32000000D02*
X60830000Y32000000D01*
X60960000Y32000000D02*
X60960000Y32000000D01*
X60830000Y32000000D02*
X60960000Y32000000D01*
X60960000Y29170000D02*
X60960000Y28770000D01*
X62080000Y29170000D02*
X60960000Y29170000D01*
X62080000Y28770000D02*
X62080000Y29170000D01*
X60960000Y28770000D02*
X62080000Y28770000D01*
X60960000Y32290000D02*
X60960000Y29170000D01*
X60960000Y29170000D02*
X64820000Y29170000D01*
X60960000Y32290000D02*
X64820000Y32290000D01*
X64820000Y29170000D02*
G75*
G03*
X64820000Y32290000I0J1560000D01*
G01*
G04 #@! TO.C,D6*
X60830000Y12460000D02*
X60830000Y12460000D01*
X60960000Y12460000D02*
X60830000Y12460000D01*
X60960000Y12460000D02*
X60960000Y12460000D01*
X60830000Y12460000D02*
X60960000Y12460000D01*
X60830000Y15000000D02*
X60830000Y15000000D01*
X60960000Y15000000D02*
X60830000Y15000000D01*
X60960000Y15000000D02*
X60960000Y15000000D01*
X60830000Y15000000D02*
X60960000Y15000000D01*
X60960000Y12170000D02*
X60960000Y11770000D01*
X62080000Y12170000D02*
X60960000Y12170000D01*
X62080000Y11770000D02*
X62080000Y12170000D01*
X60960000Y11770000D02*
X62080000Y11770000D01*
X60960000Y15290000D02*
X60960000Y12170000D01*
X60960000Y12170000D02*
X64820000Y12170000D01*
X60960000Y15290000D02*
X64820000Y15290000D01*
X64820000Y12170000D02*
G75*
G03*
X64820000Y15290000I0J1560000D01*
G01*
G04 #@! TO.C,JP1*
X8500000Y22950000D02*
X8500000Y21550000D01*
X9200000Y20850000D02*
X9800000Y20850000D01*
X10500000Y21550000D02*
X10500000Y22950000D01*
X9800000Y23650000D02*
X9200000Y23650000D01*
X9200000Y23650000D02*
G75*
G03*
X8500000Y22950000I0J-700000D01*
G01*
X10500000Y22950000D02*
G75*
G03*
X9800000Y23650000I-700000J0D01*
G01*
X9800000Y20850000D02*
G75*
G03*
X10500000Y21550000I0J700000D01*
G01*
X8500000Y21550000D02*
G75*
G03*
X9200000Y20850000I700000J0D01*
G01*
G04 #@! TO.C,D8*
D10*
X62452380Y31488096D02*
X61452380Y31488096D01*
X61452380Y31250000D01*
X61500000Y31107143D01*
X61595238Y31011905D01*
X61690476Y30964286D01*
X61880952Y30916667D01*
X62023809Y30916667D01*
X62214285Y30964286D01*
X62309523Y31011905D01*
X62404761Y31107143D01*
X62452380Y31250000D01*
X62452380Y31488096D01*
X61880952Y30345239D02*
X61833333Y30440477D01*
X61785714Y30488096D01*
X61690476Y30535715D01*
X61642857Y30535715D01*
X61547619Y30488096D01*
X61500000Y30440477D01*
X61452380Y30345239D01*
X61452380Y30154762D01*
X61500000Y30059524D01*
X61547619Y30011905D01*
X61642857Y29964286D01*
X61690476Y29964286D01*
X61785714Y30011905D01*
X61833333Y30059524D01*
X61880952Y30154762D01*
X61880952Y30345239D01*
X61928571Y30440477D01*
X61976190Y30488096D01*
X62071428Y30535715D01*
X62261904Y30535715D01*
X62357142Y30488096D01*
X62404761Y30440477D01*
X62452380Y30345239D01*
X62452380Y30154762D01*
X62404761Y30059524D01*
X62357142Y30011905D01*
X62261904Y29964286D01*
X62071428Y29964286D01*
X61976190Y30011905D01*
X61928571Y30059524D01*
X61880952Y30154762D01*
G04 #@! TO.C,D6*
X62202380Y14488096D02*
X61202380Y14488096D01*
X61202380Y14250000D01*
X61250000Y14107143D01*
X61345238Y14011905D01*
X61440476Y13964286D01*
X61630952Y13916667D01*
X61773809Y13916667D01*
X61964285Y13964286D01*
X62059523Y14011905D01*
X62154761Y14107143D01*
X62202380Y14250000D01*
X62202380Y14488096D01*
X61202380Y13059524D02*
X61202380Y13250000D01*
X61250000Y13345239D01*
X61297619Y13392858D01*
X61440476Y13488096D01*
X61630952Y13535715D01*
X62011904Y13535715D01*
X62107142Y13488096D01*
X62154761Y13440477D01*
X62202380Y13345239D01*
X62202380Y13154762D01*
X62154761Y13059524D01*
X62107142Y13011905D01*
X62011904Y12964286D01*
X61773809Y12964286D01*
X61678571Y13011905D01*
X61630952Y13059524D01*
X61583333Y13154762D01*
X61583333Y13345239D01*
X61630952Y13440477D01*
X61678571Y13488096D01*
X61773809Y13535715D01*
G04 #@! TO.C,JP1*
X7152380Y23083334D02*
X7866666Y23083334D01*
X8009523Y23130953D01*
X8104761Y23226191D01*
X8152380Y23369048D01*
X8152380Y23464286D01*
X8152380Y22607143D02*
X7152380Y22607143D01*
X7152380Y22226191D01*
X7200000Y22130953D01*
X7247619Y22083334D01*
X7342857Y22035715D01*
X7485714Y22035715D01*
X7580952Y22083334D01*
X7628571Y22130953D01*
X7676190Y22226191D01*
X7676190Y22607143D01*
X8152380Y21083334D02*
X8152380Y21654762D01*
X8152380Y21369048D02*
X7152380Y21369048D01*
X7295238Y21464286D01*
X7390476Y21559524D01*
X7438095Y21654762D01*
G04 #@! TD*
%LPC*%
D14*
G04 #@! TO.C,C3*
X25750000Y40250000D03*
X20750000Y40250000D03*
G04 #@! TD*
D15*
G04 #@! TO.C,D8*
X59750000Y29460000D03*
D16*
X59750000Y32000000D03*
G04 #@! TD*
D15*
G04 #@! TO.C,D6*
X59750000Y12460000D03*
D16*
X59750000Y15000000D03*
G04 #@! TD*
D17*
G04 #@! TO.C,C1*
X37500000Y15500000D03*
X37500000Y20500000D03*
G04 #@! TD*
D18*
G04 #@! TO.C,SW1*
X32250000Y8050000D03*
G36*
G01*
X33150001Y2100000D02*
X31349999Y2100000D01*
G75*
G02*
X31100000Y2349999I0J249999D01*
G01*
X31100000Y4150001D01*
G75*
G02*
X31349999Y4400000I249999J0D01*
G01*
X33150001Y4400000D01*
G75*
G02*
X33400000Y4150001I0J-249999D01*
G01*
X33400000Y2349999D01*
G75*
G02*
X33150001Y2100000I-249999J0D01*
G01*
G37*
G04 #@! TD*
D19*
G04 #@! TO.C,D5*
X60750000Y9300000D03*
D20*
X60750000Y4500000D03*
G04 #@! TD*
D21*
G04 #@! TO.C,REF\u002A\u002A*
X14500000Y9750000D03*
G04 #@! TD*
G04 #@! TO.C,REF\u002A\u002A*
X14500000Y34750000D03*
G04 #@! TD*
D22*
G04 #@! TO.C,R2*
X61620000Y36250000D03*
D14*
X54000000Y36250000D03*
G04 #@! TD*
D22*
G04 #@! TO.C,R1*
X61620000Y26500000D03*
D14*
X54000000Y26500000D03*
G04 #@! TD*
D23*
G04 #@! TO.C,JP1*
G36*
X8750000Y22400000D02*
G01*
X8750000Y22900000D01*
X8750602Y22900000D01*
X8750602Y22924534D01*
X8755412Y22973365D01*
X8764984Y23021490D01*
X8779228Y23068445D01*
X8798005Y23113778D01*
X8821136Y23157051D01*
X8848396Y23197850D01*
X8879524Y23235779D01*
X8914221Y23270476D01*
X8952150Y23301604D01*
X8992949Y23328864D01*
X9036222Y23351995D01*
X9081555Y23370772D01*
X9128510Y23385016D01*
X9176635Y23394588D01*
X9225466Y23399398D01*
X9250000Y23399398D01*
X9250000Y23400000D01*
X9750000Y23400000D01*
X9750000Y23399398D01*
X9774534Y23399398D01*
X9823365Y23394588D01*
X9871490Y23385016D01*
X9918445Y23370772D01*
X9963778Y23351995D01*
X10007051Y23328864D01*
X10047850Y23301604D01*
X10085779Y23270476D01*
X10120476Y23235779D01*
X10151604Y23197850D01*
X10178864Y23157051D01*
X10201995Y23113778D01*
X10220772Y23068445D01*
X10235016Y23021490D01*
X10244588Y22973365D01*
X10249398Y22924534D01*
X10249398Y22900000D01*
X10250000Y22900000D01*
X10250000Y22400000D01*
X8750000Y22400000D01*
G37*
G36*
X10249398Y21600000D02*
G01*
X10249398Y21575466D01*
X10244588Y21526635D01*
X10235016Y21478510D01*
X10220772Y21431555D01*
X10201995Y21386222D01*
X10178864Y21342949D01*
X10151604Y21302150D01*
X10120476Y21264221D01*
X10085779Y21229524D01*
X10047850Y21198396D01*
X10007051Y21171136D01*
X9963778Y21148005D01*
X9918445Y21129228D01*
X9871490Y21114984D01*
X9823365Y21105412D01*
X9774534Y21100602D01*
X9750000Y21100602D01*
X9750000Y21100000D01*
X9250000Y21100000D01*
X9250000Y21100602D01*
X9225466Y21100602D01*
X9176635Y21105412D01*
X9128510Y21114984D01*
X9081555Y21129228D01*
X9036222Y21148005D01*
X8992949Y21171136D01*
X8952150Y21198396D01*
X8914221Y21229524D01*
X8879524Y21264221D01*
X8848396Y21302150D01*
X8821136Y21342949D01*
X8798005Y21386222D01*
X8779228Y21431555D01*
X8764984Y21478510D01*
X8755412Y21526635D01*
X8750602Y21575466D01*
X8750602Y21600000D01*
X8750000Y21600000D01*
X8750000Y22100000D01*
X10250000Y22100000D01*
X10250000Y21600000D01*
X10249398Y21600000D01*
G37*
G04 #@! TD*
D14*
G04 #@! TO.C,J2*
X13500000Y18750000D03*
X13500000Y21250000D03*
X13500000Y23250000D03*
D24*
X13500000Y25750000D03*
D25*
X10790000Y15680000D03*
X10790000Y28820000D03*
G04 #@! TD*
D26*
G04 #@! TO.C,J1*
X23750000Y5000000D03*
D20*
X23750000Y10000000D03*
G04 #@! TD*
D22*
G04 #@! TO.C,D7*
X61620000Y39250000D03*
D27*
X54000000Y39250000D03*
G04 #@! TD*
D28*
G04 #@! TO.C,D4*
X30100000Y15080000D03*
D29*
X30100000Y22700000D03*
G04 #@! TD*
D28*
G04 #@! TO.C,D3*
X30100000Y26880000D03*
D29*
X30100000Y34500000D03*
G04 #@! TD*
D28*
G04 #@! TO.C,D2*
X33500000Y15080000D03*
D29*
X33500000Y22700000D03*
G04 #@! TD*
D28*
G04 #@! TO.C,D1*
X33500000Y26880000D03*
D29*
X33500000Y34500000D03*
G04 #@! TD*
D30*
G04 #@! TO.C,C4*
X22250000Y19500000D03*
D31*
X24250000Y19500000D03*
G04 #@! TD*
D32*
G04 #@! TO.C,C2*
X47000000Y31750000D03*
D33*
X42000000Y31750000D03*
G04 #@! TD*
M02*
