G04 #@! TF.GenerationSoftware,KiCad,Pcbnew,5.1.10*
G04 #@! TF.CreationDate,2021-05-08T14:59:39+02:00*
G04 #@! TF.ProjectId,Dynamo_minimal_USB_charger,44796e61-6d6f-45f6-9d69-6e696d616c5f,1.0*
G04 #@! TF.SameCoordinates,PX5f5e100PY7bfa480*
G04 #@! TF.FileFunction,Soldermask,Bot*
G04 #@! TF.FilePolarity,Negative*
%FSLAX46Y46*%
G04 Gerber Fmt 4.6, Leading zero omitted, Abs format (unit mm)*
G04 Created by KiCad (PCBNEW 5.1.10) date 2021-05-08 14:59:39*
%MOMM*%
%LPD*%
G01*
G04 APERTURE LIST*
%ADD10C,1.600000*%
%ADD11C,1.800000*%
%ADD12R,1.800000X1.800000*%
%ADD13C,2.000000*%
%ADD14C,2.300000*%
%ADD15O,2.600000X2.600000*%
%ADD16R,2.600000X2.600000*%
%ADD17C,3.200000*%
%ADD18O,1.600000X1.600000*%
%ADD19C,0.100000*%
%ADD20R,1.500000X1.600000*%
%ADD21C,3.000000*%
%ADD22C,2.600000*%
%ADD23R,1.600000X1.600000*%
%ADD24O,2.200000X2.200000*%
%ADD25R,2.200000X2.200000*%
%ADD26C,1.200000*%
%ADD27R,1.200000X1.200000*%
%ADD28C,2.400000*%
%ADD29R,2.400000X2.400000*%
G04 APERTURE END LIST*
D10*
G04 #@! TO.C,C3*
X25750000Y40250000D03*
X20750000Y40250000D03*
G04 #@! TD*
D11*
G04 #@! TO.C,D8*
X59750000Y29460000D03*
D12*
X59750000Y32000000D03*
G04 #@! TD*
D11*
G04 #@! TO.C,D6*
X59750000Y12460000D03*
D12*
X59750000Y15000000D03*
G04 #@! TD*
D13*
G04 #@! TO.C,C1*
X37500000Y15500000D03*
X37500000Y20500000D03*
G04 #@! TD*
D14*
G04 #@! TO.C,SW1*
X32250000Y8050000D03*
G36*
G01*
X33150001Y2100000D02*
X31349999Y2100000D01*
G75*
G02*
X31100000Y2349999I0J249999D01*
G01*
X31100000Y4150001D01*
G75*
G02*
X31349999Y4400000I249999J0D01*
G01*
X33150001Y4400000D01*
G75*
G02*
X33400000Y4150001I0J-249999D01*
G01*
X33400000Y2349999D01*
G75*
G02*
X33150001Y2100000I-249999J0D01*
G01*
G37*
G04 #@! TD*
D15*
G04 #@! TO.C,D5*
X60750000Y9300000D03*
D16*
X60750000Y4500000D03*
G04 #@! TD*
D17*
G04 #@! TO.C,REF\u002A\u002A*
X14500000Y9750000D03*
G04 #@! TD*
G04 #@! TO.C,REF\u002A\u002A*
X14500000Y34750000D03*
G04 #@! TD*
D18*
G04 #@! TO.C,R2*
X61620000Y36250000D03*
D10*
X54000000Y36250000D03*
G04 #@! TD*
D18*
G04 #@! TO.C,R1*
X61620000Y26500000D03*
D10*
X54000000Y26500000D03*
G04 #@! TD*
D19*
G04 #@! TO.C,JP1*
G36*
X8750000Y22400000D02*
G01*
X8750000Y22900000D01*
X8750602Y22900000D01*
X8750602Y22924534D01*
X8755412Y22973365D01*
X8764984Y23021490D01*
X8779228Y23068445D01*
X8798005Y23113778D01*
X8821136Y23157051D01*
X8848396Y23197850D01*
X8879524Y23235779D01*
X8914221Y23270476D01*
X8952150Y23301604D01*
X8992949Y23328864D01*
X9036222Y23351995D01*
X9081555Y23370772D01*
X9128510Y23385016D01*
X9176635Y23394588D01*
X9225466Y23399398D01*
X9250000Y23399398D01*
X9250000Y23400000D01*
X9750000Y23400000D01*
X9750000Y23399398D01*
X9774534Y23399398D01*
X9823365Y23394588D01*
X9871490Y23385016D01*
X9918445Y23370772D01*
X9963778Y23351995D01*
X10007051Y23328864D01*
X10047850Y23301604D01*
X10085779Y23270476D01*
X10120476Y23235779D01*
X10151604Y23197850D01*
X10178864Y23157051D01*
X10201995Y23113778D01*
X10220772Y23068445D01*
X10235016Y23021490D01*
X10244588Y22973365D01*
X10249398Y22924534D01*
X10249398Y22900000D01*
X10250000Y22900000D01*
X10250000Y22400000D01*
X8750000Y22400000D01*
G37*
G36*
X10249398Y21600000D02*
G01*
X10249398Y21575466D01*
X10244588Y21526635D01*
X10235016Y21478510D01*
X10220772Y21431555D01*
X10201995Y21386222D01*
X10178864Y21342949D01*
X10151604Y21302150D01*
X10120476Y21264221D01*
X10085779Y21229524D01*
X10047850Y21198396D01*
X10007051Y21171136D01*
X9963778Y21148005D01*
X9918445Y21129228D01*
X9871490Y21114984D01*
X9823365Y21105412D01*
X9774534Y21100602D01*
X9750000Y21100602D01*
X9750000Y21100000D01*
X9250000Y21100000D01*
X9250000Y21100602D01*
X9225466Y21100602D01*
X9176635Y21105412D01*
X9128510Y21114984D01*
X9081555Y21129228D01*
X9036222Y21148005D01*
X8992949Y21171136D01*
X8952150Y21198396D01*
X8914221Y21229524D01*
X8879524Y21264221D01*
X8848396Y21302150D01*
X8821136Y21342949D01*
X8798005Y21386222D01*
X8779228Y21431555D01*
X8764984Y21478510D01*
X8755412Y21526635D01*
X8750602Y21575466D01*
X8750602Y21600000D01*
X8750000Y21600000D01*
X8750000Y22100000D01*
X10250000Y22100000D01*
X10250000Y21600000D01*
X10249398Y21600000D01*
G37*
G04 #@! TD*
D10*
G04 #@! TO.C,J2*
X13500000Y18750000D03*
X13500000Y21250000D03*
X13500000Y23250000D03*
D20*
X13500000Y25750000D03*
D21*
X10790000Y15680000D03*
X10790000Y28820000D03*
G04 #@! TD*
D22*
G04 #@! TO.C,J1*
X23750000Y5000000D03*
D16*
X23750000Y10000000D03*
G04 #@! TD*
D18*
G04 #@! TO.C,D7*
X61620000Y39250000D03*
D23*
X54000000Y39250000D03*
G04 #@! TD*
D24*
G04 #@! TO.C,D4*
X30100000Y15080000D03*
D25*
X30100000Y22700000D03*
G04 #@! TD*
D24*
G04 #@! TO.C,D3*
X30100000Y26880000D03*
D25*
X30100000Y34500000D03*
G04 #@! TD*
D24*
G04 #@! TO.C,D2*
X33500000Y15080000D03*
D25*
X33500000Y22700000D03*
G04 #@! TD*
D24*
G04 #@! TO.C,D1*
X33500000Y26880000D03*
D25*
X33500000Y34500000D03*
G04 #@! TD*
D26*
G04 #@! TO.C,C4*
X22250000Y19500000D03*
D27*
X24250000Y19500000D03*
G04 #@! TD*
D28*
G04 #@! TO.C,C2*
X47000000Y31750000D03*
D29*
X42000000Y31750000D03*
G04 #@! TD*
M02*
